<?xml version="1.0" encoding="UTF-8" standalone="no"?>
<!-- Created with Inkscape (http://www.inkscape.org/) -->

<svg
   width="1024px"
   height="1024px"
   viewBox="0 0 1024 1024"
   version="1.1"
   id="SVGRoot"
   sodipodi:docname="logo.svg"
   inkscape:version="1.1.1 (3bf5ae0d25, 2021-09-20)"
   inkscape:export-filename="/home/oscar/Documents/Programming/NotShitClassCharts/src/res/logo-128.png"
   inkscape:export-xdpi="12"
   inkscape:export-ydpi="12"
   xmlns:inkscape="http://www.inkscape.org/namespaces/inkscape"
   xmlns:sodipodi="http://sodipodi.sourceforge.net/DTD/sodipodi-0.dtd"
   xmlns="http://www.w3.org/2000/svg"
   xmlns:svg="http://www.w3.org/2000/svg">
  <sodipodi:namedview
     id="namedview102"
     pagecolor="#ffffff"
     bordercolor="#666666"
     borderopacity="1.0"
     inkscape:pageshadow="2"
     inkscape:pageopacity="0.0"
     inkscape:pagecheckerboard="0"
     inkscape:document-units="px"
     showgrid="false"
     inkscape:zoom="0.51906082"
     inkscape:cx="236.96645"
     inkscape:cy="458.52045"
     inkscape:window-width="1920"
     inkscape:window-height="1000"
     inkscape:window-x="0"
     inkscape:window-y="44"
     inkscape:window-maximized="1"
     inkscape:current-layer="layer1" />
  <defs
     id="defs97">
    <rect
       x="82.236941"
       y="453.91724"
       width="8.2297264"
       height="50.456872"
       id="rect42160" />
    <rect
       x="91.274613"
       y="97.670206"
       width="827.68179"
       height="835.73619"
       id="rect13092" />
  </defs>
  <g
     inkscape:label="Layer 1"
     inkscape:groupmode="layer"
     id="layer1">
    <path
       id="rect152"
       style="fill:#003380;fill-rule:evenodd;stroke-width:19.5023613;stroke-miterlimit:4;stroke-dasharray:none;stroke:#0058c2;stroke-opacity:1;stroke-linecap:butt;stroke-linejoin:miter;paint-order:fill markers stroke;fill-opacity:1"
       d="m 229.74195,2.5660572 c -3.97222,0.056594 -7.94314,0.2009013 -11.9082,0.4472656 -1.64551,0.1141858 -3.51097,0.2401212 -5.23752,0.3943003 -22.15747,1.8806576 -44.03847,6.9823029 -64.73709,15.1115599 -1.39093,0.559351 -2.99851,1.197306 -4.46142,1.813284 -10.57685,4.412685 -20.81932,9.624533 -30.62061,15.563669 -1.64497,1.004191 -3.45792,2.127479 -5.14409,3.215455 -5.29244,3.395958 -10.534888,7.096168 -15.469198,10.866576 -16.12839,12.351644 -30.61529,26.839905 -42.96875,42.966797 -1.18153,1.559019 -2.47973,3.281901 -3.66875,4.93237 -3.67596,5.068006 -7.20374,10.396516 -10.41132,15.680916 -11.69169,19.26876 -20.51718,40.26948 -26.1073792,62.10351 -0.4264,1.7037 -0.8988,3.61609 -1.3125,5.4069 -0.5231,2.28077 -1.0646,4.7797 -1.5286,7.16004 -1.6047,8.10691 -2.7584,16.30158 -3.4928999,24.53267 -0.1062,1.36668 -0.2509,2.96976 -0.3424,4.42998 -0.438,6.10889 -0.5958,12.42457 -0.5678,18.62979 0,185.12486 -0.01,370.24976 0,555.37459 0.011,4.70907 0.1766,9.55178 0.4622,14.16721 0.1713,2.55146 0.3609,5.08961 0.6037999,7.57132 0.9525,10.04558 2.5755,20.02614 4.8259,29.86227 0.3739,1.57654 0.7961,3.37038 1.2188,5.02262 1.4678002,5.80254 3.2245992,11.74644 5.1796992,17.49 8.0298,23.64364 19.96681,45.94761 35.15228,65.76668 1.19143,1.54976 2.51988,3.24746 3.80084,4.8265 11.48088,14.1982 24.65851,27.0201 39.15228,38.12467 1.55893,1.18166 3.28209,2.47948 4.93223,3.66895 23.324168,16.91918 49.865668,29.37945 77.782618,36.51855 1.7037,0.4263 3.61609,0.8987 5.4069,1.3125 2.28131,0.5235 4.78108,1.0642 7.16196,1.5287 8.10685,1.6051 16.30165,2.7577 24.5327,3.4928 1.60661,0.1297 3.43485,0.284 5.12828,0.3911 4.04998,0.2743 8.30727,0.4356 12.44855,0.4964 17.7608,0.052 35.52199,0.01 53.28294,0.023 169.74504,0 339.49013,0.01 509.23514,-0.01 4.70019,-0.013 9.3993,-0.1755 14.09064,-0.4616 1.6454,-0.1155 3.51062,-0.2429 5.23766,-0.3945 3.9909,-0.3345 8.19181,-0.8129 12.24867,-1.3691 6.68916,-0.9365 13.33769,-2.1594 19.92187,-3.6661 1.57654,-0.3739 3.37038,-0.796 5.02262,-1.2188 5.8028,-1.4669 11.74633,-3.2249 17.49004,-5.1795 15.75018,-5.3546 30.91401,-12.42987 45.13773,-21.05672 1.64466,-1.00303 3.45656,-2.12626 5.1423,-3.21326 5.30974,-3.41235 10.47481,-7.04868 15.48856,-10.88245 1.54874,-1.19193 3.2456,-2.5206 4.82472,-3.80063 20.682,-16.71786 38.43282,-37.0455 52.22021,-59.7853 0.97458,-1.62618 2.04951,-3.43099 3.02704,-5.14698 5.96113,-10.43297 11.0971,-21.3356 15.3597,-32.56982 0.6743,-1.80307 1.4112,-3.79832 2.0674,-5.69082 2.1431,-6.1414 4.0161,-12.37597 5.6396,-18.67442 0.4271,-1.70351 0.8986,-3.61613 1.3122,-5.40696 2.4011,-10.40659 4.0836,-21.11649 5.0179,-31.66921 0.2194,-2.58359 0.4118,-5.14782 0.5474,-7.67601 0.5663,-9.79232 0.3044,-19.60473 0.3647,-29.40719 0,-180.49218 0.01,-360.98439 0,-541.47655 -0.014,-4.7001 -0.1742,-9.39945 -0.4621,-14.09064 -0.1142,-1.64544 -0.2405,-3.5107 -0.3925,-5.23766 -0.3341,-3.99165 -0.8167,-8.19285 -1.3712,-12.25062 -1.1985,-8.5812 -2.8741,-17.09545 -5.0195,-25.49023 -0.437,-1.69928 -0.9476,-3.60012 -1.4464,-5.36737 -9.0142,-32.06537 -25.14594,-62.09388 -46.8638,-87.345997 -10.42886,-12.14894 -22.13092,-23.202371 -34.83834,-32.942396 -1.55999,-1.181479 -3.28161,-2.480624 -4.93258,-3.670424 C 901.41293,27.814186 872.07482,14.658054 841.30625,7.9359901 829.73297,5.3981478 817.96436,3.7624004 806.14039,3.0133228 804.49153,2.9134178 802.62237,2.8094336 800.88745,2.7442237 792.1831,2.4040818 783.46996,2.5981025 774.76148,2.546526 593.81644,2.550016 412.87136,2.539546 231.92634,2.551766 c -0.72813,0.00477 -1.45626,0.00953 -2.18439,0.014296 z" />
    <text
       xml:space="preserve"
       id="text13090"
       style="font-style:normal;font-weight:normal;font-size:400px;line-height:1.25;font-family:sans-serif;white-space:pre;shape-inside:url(#rect13092);fill:#d5e5ff;fill-opacity:1;stroke:#80b3ff;stroke-width:6.87676;stroke-miterlimit:4;stroke-dasharray:none"
       transform="matrix(1.2860836,0,0,1.2860836,-84.882153,91.031026)"><tspan
         x="91.275391"
         y="451.57617"
         id="tspan47586"><tspan
           style="font-size:341.333px"
           id="tspan47582">CC</tspan><tspan
           style="stroke-linecap:round;stroke-linejoin:round;paint-order:fill markers stroke"
           id="tspan47584">+</tspan></tspan></text>
    <text
       xml:space="preserve"
       id="text42158"
       style="fill:black;fill-opacity:1;line-height:1.25;stroke:none;font-family:sans-serif;font-style:normal;font-weight:normal;font-size:40px;white-space:pre;shape-inside:url(#rect42160)" />
  </g>
</svg>
